<svg width="30" height="30" viewBox="0 0 30 30" fill="none" xmlns="http://www.w3.org/2000/svg">
<g clip-path="url(#clip0_17_872)">
<path d="M14.9927 30C23.1946 30 29.9854 23.2092 29.9854 15.0073C29.9854 6.82015 23.1799 0.0146484 14.978 0.0146484C6.7908 0.0146484 0 6.82015 0 15.0073C0 23.2092 6.8055 30 14.9927 30ZM6.34984 21.5776V9.73049C6.34984 9.18665 6.67321 8.89266 7.24646 8.89266H8.55464C9.1132 8.89266 9.42188 9.18665 9.42188 9.73049V21.5776C9.42188 22.1216 9.1132 22.4301 8.55464 22.4301H7.24646C6.67321 22.4301 6.34984 22.1216 6.34984 21.5776ZM10.4361 21.5776V12.1264C10.4361 11.5972 10.7595 11.2592 11.3033 11.2592H14.1402C14.7134 11.2592 14.9927 11.5972 14.9927 12.1264V21.5776C14.9927 22.1216 14.7134 22.4301 14.1402 22.4301H11.3033C10.7595 22.4301 10.4361 22.1216 10.4361 21.5776ZM11.5238 20.3724C11.5238 20.6369 11.7149 20.8428 11.9647 20.8428H13.4934C13.758 20.8428 13.9491 20.6369 13.9491 20.3724C13.9491 20.1224 13.758 19.9167 13.4934 19.9167H11.9647C11.7002 19.9167 11.5238 20.1078 11.5238 20.3724ZM11.5238 13.3464C11.5238 13.5816 11.7002 13.802 11.9647 13.802H13.4934C13.758 13.802 13.9491 13.5669 13.9491 13.3464C13.9491 13.0818 13.758 12.8907 13.4934 12.8907H11.9647C11.7149 12.8907 11.5238 13.0818 11.5238 13.3464ZM16.0363 21.5776V7.80497C16.0363 7.24641 16.3155 6.93775 16.8888 6.93775H18.6086C19.1672 6.93775 19.4759 7.24641 19.4759 7.80497V9.30423L20.6369 9.01026C21.1809 8.87797 21.5335 9.15724 21.6365 9.70109L24.0176 21.1367C24.1058 21.6805 23.8707 22.048 23.3268 22.1657L22.2244 22.4301C21.6953 22.5624 21.3278 22.298 21.225 21.7687L19.4759 13.3023V21.5776C19.4759 22.1216 19.1672 22.4301 18.6086 22.4301H16.8888C16.3155 22.4301 16.0363 22.1216 16.0363 21.5776Z" fill="#333333"/>
</g>
<defs>
<clipPath id="clip0_17_872">
<rect width="29.9854" height="30" fill="white"/>
</clipPath>
</defs>
</svg>
