<svg width="41" height="41" viewBox="0 0 41 41" fill="none" xmlns="http://www.w3.org/2000/svg">
<g clip-path="url(#clip0_17_660)">
<path d="M0.96875 20.4882C0.96875 21.6476 1.93939 22.594 3.07576 22.594H18.393V37.9019C18.393 39.0377 19.3399 40.0077 20.5 40.0077C21.66 40.0077 22.6307 39.0377 22.6307 37.9019V22.594H37.9241C39.0606 22.594 40.0313 21.6476 40.0313 20.4882C40.0313 19.3289 39.0606 18.3588 37.9241 18.3588H22.6307V3.07449C22.6307 1.93881 21.66 0.96875 20.5 0.96875C19.3399 0.96875 18.393 1.93881 18.393 3.07449V18.3588H3.07576C1.93939 18.3588 0.96875 19.3289 0.96875 20.4882Z" fill="#EEEEEE"/>
</g>
<defs>
<clipPath id="clip0_17_660">
<rect width="39.0625" height="39.0625" fill="white" transform="translate(0.96875 0.96875)"/>
</clipPath>
</defs>
</svg>
